<svg xmlns="http://www.w3.org/2000/svg" xmlns:xlink="http://www.w3.org/1999/xlink" width="55" height="55" viewBox="0 0 55 55">
  <defs>
    <clipPath id="clip-path">
      <rect id="Rectangle_14" data-name="Rectangle 14" width="55" height="55" transform="translate(1201 1604)" fill="#707070"/>
    </clipPath>
  </defs>
  <g id="Mask_Group_2" data-name="Mask Group 2" transform="translate(-1201 -1604)" clip-path="url(#clip-path)">
    <g id="bathroom" transform="translate(1201 1604)">
      <g id="Group_4" data-name="Group 4">
        <g id="Group_3" data-name="Group 3">
          <path id="Path_108" data-name="Path 108" d="M45.833,20.167H38.845a11.831,11.831,0,0,0,3.322-8.25A.917.917,0,0,0,41.25,11H34.833V9.167a.917.917,0,0,0-.917-.917H30.25a.917.917,0,0,0-.917.917V11h-.917V4.583a2.75,2.75,0,1,1,5.5,0,.917.917,0,1,0,1.833,0,4.583,4.583,0,1,0-9.167,0V11h-.917V9.167a.917.917,0,0,0-.917-.917H21.083a.917.917,0,0,0-.917.917V11H13.75a.917.917,0,0,0-.917.917,11.862,11.862,0,0,0,3.335,8.25h-7a.917.917,0,0,0-.917.917V44.917a.917.917,0,0,0,.917.917h.917v8.25A.917.917,0,0,0,11,55h2.75a.917.917,0,0,0,.9-.766l.662-3.968a.917.917,0,0,1,.9-.765H38.781a.917.917,0,0,1,.9.765l.662,3.968a.917.917,0,0,0,.9.766H44a.917.917,0,0,0,.917-.917v-8.25h.917a.917.917,0,0,0,.917-.917V21.083A.917.917,0,0,0,45.833,20.167ZM31.167,10.083H33V11H31.167Zm-9.167,0h1.833V11H22Zm-7.292,2.75H40.293a10.05,10.05,0,0,1-4.238,7.333h-17.1A10.026,10.026,0,0,1,14.708,12.833ZM10.083,44V22h16.5V44Zm33,9.167H42.026l-.534-3.2a2.742,2.742,0,0,0-2.712-2.3H16.22a2.742,2.742,0,0,0-2.712,2.3l-.534,3.2H11.917V45.833H43.083ZM44.917,44h-16.5V22h16.5Z" fill="#707070"/>
          <path id="Path_109" data-name="Path 109" d="M30.25,35.75a.917.917,0,0,0,.917-.917V31.167a.917.917,0,1,0-1.833,0v3.667A.917.917,0,0,0,30.25,35.75Z" fill="#707070"/>
          <path id="Path_110" data-name="Path 110" d="M24.75,30.25a.917.917,0,0,0-.917.917v3.667a.917.917,0,0,0,1.833,0V31.167A.917.917,0,0,0,24.75,30.25Z" fill="#707070"/>
        </g>
      </g>
    </g>
  </g>
</svg>
