<svg xmlns="http://www.w3.org/2000/svg" xmlns:xlink="http://www.w3.org/1999/xlink" width="55" height="55" viewBox="0 0 55 55">
  <defs>
    <clipPath id="clip-path">
      <rect id="Rectangle_12" data-name="Rectangle 12" width="55" height="55" transform="translate(1086 1604)" fill="#707070"/>
    </clipPath>
  </defs>
  <g id="Mask_Group_1" data-name="Mask Group 1" transform="translate(-1086 -1604)" clip-path="url(#clip-path)">
    <g id="kitchen" transform="translate(1086 1604)">
      <g id="Group_2" data-name="Group 2">
        <g id="Group_1" data-name="Group 1">
          <path id="Path_99" data-name="Path 99" d="M54.141,32.656H36.953V30.938h.859a.859.859,0,0,0,0-1.719h-.859v-.859a3.438,3.438,0,0,1,6.875,0,.859.859,0,0,0,1.719,0,5.156,5.156,0,0,0-10.312,0v4.3H20.814a2.562,2.562,0,0,0,.67-1.719V25.781a.859.859,0,0,0-.859-.859H7.734a.859.859,0,0,0-.859.859v5.156a2.562,2.562,0,0,0,.67,1.719H.859A.859.859,0,0,0,0,33.516V54.141A.859.859,0,0,0,.859,55H54.141A.859.859,0,0,0,55,54.141V33.516A.859.859,0,0,0,54.141,32.656ZM8.594,26.641H19.766v4.3a.859.859,0,0,1-.859.859H9.453a.859.859,0,0,1-.859-.859ZM13.75,53.281H1.719V42.969H13.75Zm0-12.031H1.719V34.375H4.3a.859.859,0,0,0,.859.859h5.156a.859.859,0,0,0,.859-.859H13.75ZM39.531,53.281H15.469V34.375H39.531Zm13.75,0H41.25V42.969H53.281Zm0-12.031H41.25V34.375h2.578a.859.859,0,0,0,.859.859h5.156a.859.859,0,0,0,.859-.859h2.578Z" fill="#707070"/>
          <path id="Path_100" data-name="Path 100" d="M17.188,47.266H37.813a.859.859,0,0,0,.859-.859V37.813a.859.859,0,0,0-.859-.859H17.188a.859.859,0,0,0-.859.859v8.594A.859.859,0,0,0,17.188,47.266Zm.859-8.594H36.953v6.875H18.047Z" fill="#707070"/>
          <path id="Path_101" data-name="Path 101" d="M32.656,49.844H22.344a.859.859,0,0,0,0,1.719H32.656a.859.859,0,0,0,0-1.719Z" fill="#707070"/>
          <path id="Path_102" data-name="Path 102" d="M9.453,12.891H45.547a.859.859,0,0,0,.859-.859V.859A.859.859,0,0,0,45.547,0H9.453a.859.859,0,0,0-.859.859V12.031A.859.859,0,0,0,9.453,12.891ZM28.359,1.719H44.688v9.453H28.359Zm-18.047,0H26.641v9.453H10.313Z" fill="#707070"/>
          <path id="Path_103" data-name="Path 103" d="M21.484,6.016H14.609a.859.859,0,0,0,0,1.719h6.875a.859.859,0,0,0,0-1.719Z" fill="#707070"/>
          <path id="Path_104" data-name="Path 104" d="M40.391,6.016H33.516a.859.859,0,0,0,0,1.719h6.875a.859.859,0,0,0,0-1.719Z" fill="#707070"/>
          <path id="Path_105" data-name="Path 105" d="M9.8,21.227a2.406,2.406,0,0,0-1.2,1.977.859.859,0,0,0,1.719,0c0-.181.086-.277.516-.6a2.406,2.406,0,0,0,1.2-1.977,2.406,2.406,0,0,0-1.2-1.977c-.434-.326-.516-.421-.516-.6s.086-.275.516-.6a2.406,2.406,0,0,0,1.2-1.977.859.859,0,0,0-1.719,0c0,.18-.086.275-.516.6a2.406,2.406,0,0,0-1.2,1.977,2.406,2.406,0,0,0,1.2,1.977c.43.326.516.421.516.6S10.227,20.9,9.8,21.227Z" fill="#707070"/>
          <path id="Path_106" data-name="Path 106" d="M15.125,17.445a2.406,2.406,0,0,0,1.2-1.977.859.859,0,0,0-1.719,0c0,.18-.086.275-.516.6a2.406,2.406,0,0,0-1.2,1.977,2.406,2.406,0,0,0,1.2,1.977c.43.326.516.421.516.6s-.086.277-.516.6a2.406,2.406,0,0,0-1.2,1.977.859.859,0,0,0,1.719,0c0-.181.086-.277.516-.6a2.406,2.406,0,0,0,1.2-1.977,2.406,2.406,0,0,0-1.2-1.977c-.43-.326-.516-.421-.516-.6S14.7,17.769,15.125,17.445Z" fill="#707070"/>
          <path id="Path_107" data-name="Path 107" d="M19.422,17.445a2.406,2.406,0,0,0,1.2-1.977.859.859,0,0,0-1.719,0c0,.18-.086.275-.516.6a2.406,2.406,0,0,0-1.2,1.977,2.406,2.406,0,0,0,1.2,1.977c.43.326.516.421.516.6s-.086.277-.516.6a2.406,2.406,0,0,0-1.2,1.977.859.859,0,0,0,1.719,0c0-.181.086-.277.516-.6a2.406,2.406,0,0,0,1.2-1.977,2.406,2.406,0,0,0-1.2-1.977c-.43-.326-.516-.421-.516-.6S18.992,17.769,19.422,17.445Z" fill="#707070"/>
        </g>
      </g>
    </g>
  </g>
</svg>
