<svg version="1.1"  xmlns="http://www.w3.org/2000/svg" xmlns:xlink="http://www.w3.org/1999/xlink" x="0px" y="0px"
	 viewBox="0 0 913.5 301.4" style="enable-background:new 0 0 913.5 301.4;" xml:space="preserve">
	<style type="text/css">
		.color{fill:#ffffff;}
	</style>
	<g>
		<g id="def-75a23b6d-4d2d-45d6-a82a-8ee73b19966c_1_" transform="matrix(6.412, 0, 0, 6.412, 43.315, 349.323)">
			<g transform="translate(0, 0)">
				<path class="color" d="M39.2-16.5h-36c-0.6,0-1-0.4-1-1v-36c0-0.6,0.4-1,1-1s1,0.4,1,1v35h35c0.6,0,1,0.4,1,1S39.8-16.5,39.2-16.5
					z"/>
				<path class="color" d="M30.2-20.5c-0.6,0-1-0.4-1-1v-22h-22c-0.6,0-1-0.4-1-1s0.4-1,1-1h23c0.6,0,1,0.4,1,1v23
					C31.2-20.9,30.8-20.5,30.2-20.5z"/>
				<path class="color" d="M-0.8-43.5h-5c-0.6,0-1-0.4-1-1s0.4-1,1-1h5c0.6,0,1,0.4,1,1S-0.2-43.5-0.8-43.5z"/>
				<path class="color" d="M30.2-7.5c-0.6,0-1-0.4-1-1v-5c0-0.6,0.4-1,1-1s1,0.4,1,1v5C31.2-7.9,30.8-7.5,30.2-7.5z"/>
			</g>
		</g>
	</g>
	<g>
		<path class="color" id="def-eea6a233-a1cb-4b63-a112-7aaf0a6cd197_1_" d="M457.2,160.3V178h-86.7V-2h19.3v162.3H457.2z M517.2,178
			V-2h19.3V178H517.2z M720.9,178V59.7l2.3-27.3h-1L714,57.9l-36.3,78.2h-6.4l-38.1-78.2l-8-25.5h-1l3.6,27.3V178h-18.5V-2h16.2
			L669,86.5l6.4,21.1h0.5l6.2-21.4L723.2-2h17V178H720.9z M893.1,178l-14.7-50.4h-50.9L813,178h-19L848.3-4.9h10.5L913.1,178H893.1z
			 M847.8,55.3l-15.2,55.1h41.2l-15.7-55.6l-4.9-27h-0.5L847.8,55.3z"/>
	</g>
	<g>
		<path class="color" id="def-514c9062-6724-47f3-ad68-81a0b49ee023_1_" d="M430.8,235.2l6.7,65.8h-4.9l-1.8-20.1l-4-36.4h-0.6
			L406.1,293h-4.8l-19.3-48.6h-0.6l-4,36.1l-2,20.4h-4.7l7.1-65.8h6.1l3.7,10.1l16.2,40.7h0.5l17.1-41.5l3.5-9.3H430.8z
			 M559.7,296.1l0.4,0.6l-0.5,4.2h-34.7l0.3-20l-0.3-45.8h34.6l0.4,0.6l-0.6,4.2l-15.3-0.2l-13.6,0.1l-0.2,24.8l12.9,0.1l11-0.1
			l0.4,0.5l-0.5,4.2l-23.8-0.1l-0.1,11.3l0.2,15.6l13.3,0.1L559.7,296.1z M667,266.6c4.7,0.8,8.3,2.5,10.8,5.2
			c2.5,2.7,3.8,6.4,3.8,11l0,0c0,6-2.2,10.5-6.5,13.7c-4.3,3.2-10.6,4.8-18.8,4.8l0,0c-4.8,0-9.2-0.1-13.1-0.3l0,0l0.3-20l-0.3-45.8
			l15.6-0.1c5.8,0,10.2,1.3,13.4,4c3.2,2.7,4.7,6.5,4.7,11.5l0,0c0,4-0.9,7.3-2.6,10C672.6,263.3,670.1,265.3,667,266.6L667,266.6z
			 M671.4,251.1c0-3.8-1.1-6.6-3.3-8.6s-5.5-2.9-9.8-2.9l0,0h-9.7l-0.2,25.1l12.3,0.2c3.5-0.8,6.2-2.3,8-4.6
			C670.5,258,671.4,255,671.4,251.1L671.4,251.1z M656.6,296.7c6.2,0,11.1-1.2,14.5-3.7c3.4-2.5,5.1-6,5.1-10.6l0,0
			c0-3.8-1.2-6.9-3.7-9.1c-2.5-2.2-6-3.5-10.7-4l0,0l-13.4,0.1l-0.1,11.2l0.2,15.7C651.1,296.6,653.9,296.7,656.6,296.7L656.6,296.7
			z M796.9,296.3l0.5,0.6l-0.6,4H766l0.3-20l-0.3-45.8h5.5l-0.3,45.5l0.2,15.6H796.9z M913,296.1l0.4,0.6l-0.5,4.2h-34.7l0.3-20
			l-0.3-45.8h34.6l0.4,0.6l-0.6,4.2l-15.3-0.2l-13.6,0.1l-0.2,24.8l12.9,0.1l11-0.1l0.4,0.5l-0.5,4.2l-23.8-0.1l-0.1,11.3l0.2,15.6
			l13.3,0.1L913,296.1z"/>
	</g>
</svg>