<?xml version="1.0" encoding="iso-8859-1"?>
<!-- Generator: Adobe Illustrator 19.0.0, SVG Export Plug-In . SVG Version: 6.00 Build 0)  -->
<svg version="1.1" id="Capa_1" xmlns="http://www.w3.org/2000/svg" xmlns:xlink="http://www.w3.org/1999/xlink" x="0px" y="0px"
	 viewBox="0 0 434.16 434.16" style="enable-background:new 0 0 434.16 434.16;" xml:space="preserve">
<g>
	<g>
		<path d="M116.75,86.08H65.31c-4.418,0-8,3.582-8,8s3.582,8,8,8h51.44c4.418,0,8-3.582,8-8S121.168,86.08,116.75,86.08z"/>
	</g>
</g>
<g>
	<g>
		<path d="M116.75,155.12H65.31c-4.418,0-8,3.582-8,8s3.582,8,8,8h51.44c4.418,0,8-3.582,8-8S121.168,155.12,116.75,155.12z"/>
	</g>
</g>
<g>
	<g>
		<path d="M116.75,224.4H65.31c-4.418,0-8,3.582-8,8s3.582,8,8,8h51.44c4.418,0,8-3.582,8-8S121.168,224.4,116.75,224.4z"/>
	</g>
</g>
<g>
	<g>
		<path d="M116.75,294.08H65.31c-4.418,0-8,3.582-8,8s3.582,8,8,8h51.44c4.418,0,8-3.582,8-8S121.168,294.08,116.75,294.08z"/>
	</g>
</g>
<g>
	<g>
		<path d="M238.75,114.32l-46.8-21.44c-4.021-1.834-8.766-0.061-10.6,3.96s-0.061,8.766,3.96,10.6h0l46.8,21.44
			c4.021,1.834,8.766,0.061,10.6-3.96C244.543,120.899,242.77,116.154,238.75,114.32z"/>
	</g>
</g>
<g>
	<g>
		<path d="M397.95,132.8l-26.16-30.72c-8.265-10.217-20.221-16.77-33.28-18.24c-12.854-0.539-25.369,4.201-34.64,13.12l-18.16,16
			l6.96-15.12c10.32-22.64,4.16-38.32-2.88-47.52c-5.487-6.954-12.604-12.45-20.72-16L232.75,17.2c-21.04-9.6-48.8-8.48-63.52,24
			l-10.16,22.16V48c0-35.36-24.72-48-48-48h-40c-23.2,0-48,12.56-48,48v338.16c0,35.36,24.72,48,48,48h40
			c26.08,0,40-13.44,45.12-29.84L392.99,200c10.103-7.786,16.624-19.329,18.08-32C411.446,155.006,406.739,142.378,397.95,132.8z
			 M143.07,386.16c0,11.92-4.16,32-32,32h-40c-11.92,0-32-4.16-32-32V48c0-27.76,20-32,32-32h40c11.92,0,32,4.16,32,32V386.16z
			 M181.23,240l-22.16-9.92v-58.4l44.16,20.16c4.021,1.834,8.766,0.061,10.6-3.96c1.834-4.021,0.061-8.766-3.96-10.6l-46.8-21.36
			c-1.263-0.526-2.641-0.719-4-0.56v-53.84l24.72-53.84c11.52-25.28,31.44-20.72,42.32-16l36.56,16.72
			c5.725,2.475,10.753,6.322,14.64,11.2c6.509,9.242,6.918,21.464,1.04,31.12l-79.04,172.8l-40,88v-104l15.28,7.04
			c4.021,1.834,8.766,0.061,10.6-3.96C187.023,246.579,185.25,241.834,181.23,240z M382.59,187.84l-216.48,186.8l42.64-93.2
			l11.04,12.64c2.765,3.446,7.801,3.997,11.246,1.232c3.446-2.765,3.997-7.801,1.232-11.246c-0.175-0.218-0.362-0.427-0.558-0.626
			l-16-17.52l24.64-53.76l31.52,36.56c2.938,3.424,8.096,3.818,11.52,0.88c3.424-2.938,3.818-8.096,0.88-11.52l-33.76-39.12
			c-0.874-0.97-1.973-1.712-3.2-2.16l22.56-49.28l44.64-38.48c6.098-6.049,14.371-9.393,22.96-9.28
			c8.698,1.193,16.589,5.726,22,12.64l26.24,30.48c6.039,6.525,9.358,15.11,9.28,24C393.78,175.228,389.324,182.761,382.59,187.84z"
			/>
	</g>
</g>
<g>
	<g>
		<path d="M336.75,192.64l-33.6-38.96c-2.997-3.246-8.058-3.449-11.305-0.452c-3.106,2.867-3.445,7.655-0.775,10.932l33.6,38.96
			c2.997,3.247,8.058,3.449,11.305,0.452C339.08,200.705,339.42,195.917,336.75,192.64z"/>
	</g>
</g>
<g>
	<g>
		<path d="M91.07,343.76c-15.376,0-27.84,12.464-27.84,27.84s12.464,27.84,27.84,27.84s27.84-12.464,27.84-27.84
			S106.445,343.76,91.07,343.76z M91.07,383.44v0.32c-6.539,0-11.84-5.301-11.84-11.84s5.301-11.84,11.84-11.84
			s11.84,5.301,11.84,11.84C102.736,378.334,97.486,383.442,91.07,383.44z"/>
	</g>
</g>
<g>
</g>
<g>
</g>
<g>
</g>
<g>
</g>
<g>
</g>
<g>
</g>
<g>
</g>
<g>
</g>
<g>
</g>
<g>
</g>
<g>
</g>
<g>
</g>
<g>
</g>
<g>
</g>
<g>
</g>
</svg>
