<svg xmlns="http://www.w3.org/2000/svg" xmlns:xlink="http://www.w3.org/1999/xlink" width="55" height="55" viewBox="0 0 55 55">
  <defs>
    <clipPath id="clip-path">
      <rect id="Rectangle_13" data-name="Rectangle 13" width="55" height="55" transform="translate(1315 1604)" fill="#707070"/>
    </clipPath>
  </defs>
  <g id="Mask_Group_3" data-name="Mask Group 3" transform="translate(-1315 -1604)" clip-path="url(#clip-path)">
    <g id="wardrobe" transform="translate(1318.444 1604)">
      <path id="Path_111" data-name="Path 111" d="M47.3,0H.807A.807.807,0,0,0,0,.807V54.193A.807.807,0,0,0,.807,55H3.39a.807.807,0,0,0,.807-.807V52.417H43.914v1.776a.807.807,0,0,0,.807.807H47.3a.807.807,0,0,0,.807-.807V.807A.807.807,0,0,0,47.3,0ZM46.5,50.8H24.863v-.968H44.721a.807.807,0,0,0,.807-.807v-21.1a.807.807,0,1,0-1.615,0V31H24.863V26.585H40.416a.807.807,0,0,0,.807-.807V16.853l2.691-1.076v8.279a.807.807,0,0,0,1.615,0V3.391a.807.807,0,0,0-.807-.807H24.863V1.615H46.5ZM32.72,4.2V6.888H29.168V4.2Zm11.194,0v7.572L41.1,7.268a.816.816,0,0,0-.684-.379H34.335V4.2Zm-2.691,6.313,2.3,3.683-2.3.921ZM24.863,24.97V8.5h.2a3.391,3.391,0,0,0,6.586,0h2.788V24.97Zm0,16.253H43.914v7H24.863Zm19.051-1.615H24.863v-7H43.914ZM28.361,8.5h1.58a1.773,1.773,0,0,1-3.16,0Zm11.247,4.644L36.706,8.5h2.9ZM36.057,10.51l2.3,3.683-2.3.921Zm0,6.342,3.552-1.42V24.97H36.057Zm-8.5-9.964H24.863V4.2h2.691ZM2.583,53.385H1.615v-.968h.968ZM1.615,50.8V1.615H23.248V50.8ZM46.5,53.385h-.968v-.968H46.5Zm0,0" fill="#707070"/>
      <path id="Path_112" data-name="Path 112" d="M36.11,43.914H32.666a.807.807,0,1,0,0,1.615H36.11a.807.807,0,0,0,0-1.615Zm0,0" fill="#707070"/>
      <path id="Path_113" data-name="Path 113" d="M32.666,36.057h3.444a.807.807,0,0,0,0-1.615H32.666a.807.807,0,0,0,0,1.615Zm0,0" fill="#707070"/>
      <path id="Path_114" data-name="Path 114" d="M18.889,2.583H3.391a.807.807,0,0,0-.807.807V49.026a.807.807,0,0,0,.807.807h15.5a.807.807,0,0,0,.807-.807V3.391a.807.807,0,0,0-.807-.807Zm-.807,45.636H4.2V4.2H18.082Zm0,0" fill="#707070"/>
      <path id="Path_115" data-name="Path 115" d="M21.473,23.248a.807.807,0,0,0-.807.807v5.166a.807.807,0,0,0,1.615,0V24.056a.807.807,0,0,0-.807-.807Zm0,0" fill="#707070"/>
    </g>
  </g>
</svg>
